<?xml version="1.0" encoding="iso-8859-1"?>
<!-- Generator: Adobe Illustrator 19.0.0, SVG Export Plug-In . SVG Version: 6.00 Build 0)  -->
<svg xmlns="http://www.w3.org/2000/svg" xmlns:xlink="http://www.w3.org/1999/xlink" version="1.1" id="Capa_1" x="0px" y="0px" viewBox="0 0 512.001 512.001" style="enable-background:new 0 0 512.001 512.001;" xml:space="preserve" width="512px" height="512px">
<g>
	<g>
		<path d="M507.572,401.567l-31.812-31.812l-31.812,31.812c-5.861,5.861-15.347,5.861-21.207,0c-5.861-5.861-5.861-15.347,0-21.207    l31.812-31.812l-21.207-21.207l-31.812,31.812c-5.861,5.861-15.347,5.861-21.207,0c-5.86-5.861-5.861-15.347,0-21.207    l31.812-31.812l-28.205-28.206L277.895,383.964l123.639,123.64c5.861,5.861,15.347,5.861,21.207,0l84.831-84.83    C513.433,416.913,513.433,407.427,507.572,401.567z" fill="#FFFFFF"/>
	</g>
</g>
<g>
	<g>
		
			<rect x="90.43" y="277.998" transform="matrix(0.7071 -0.7071 0.7071 0.7071 -139.4616 279.2892)" width="353.943" height="59.983" fill="#FFFFFF"/>
	</g>
</g>
<g>
	<g>
		
			<rect x="26.831" y="214.375" transform="matrix(0.7071 -0.7071 0.7071 0.7071 -113.1014 215.6832)" width="353.943" height="59.983" fill="#FFFFFF"/>
	</g>
</g>
<g>
	<g>
		
			<rect x="377.562" y="44.248" transform="matrix(0.7071 -0.7071 0.7071 0.7071 30.6711 312.501)" width="29.992" height="149.959" fill="#FFFFFF"/>
	</g>
</g>
<g>
	<g>
		<path d="M498.664,55.679l-42.56-42.56c-17.5-17.5-45.988-17.49-63.498,0.021L371.347,34.4l106.037,106.037l21.207-21.207    C516.134,101.688,516.165,73.18,498.664,55.679z" fill="#FFFFFF"/>
	</g>
</g>
<g>
	<g>
		<path d="M40.285,373.557L0.801,492.011c-1.792,5.396-0.394,11.329,3.624,15.347s9.951,5.416,15.347,3.624l118.454-39.484    L40.285,373.557z" fill="#FFFFFF"/>
	</g>
</g>
<g>
	<g>
		<path d="M206.897,99.831l-31.812,31.812c-5.861,5.861-15.347,5.861-21.207,0c-5.861-5.861-5.861-15.347,0-21.207l31.812-31.812    l-21.207-21.208L132.67,89.227c-5.861,5.861-15.347,5.861-21.207,0c-5.861-5.861-5.861-15.347,0-21.207l31.812-31.812    L111.463,4.396c-5.861-5.861-15.347-5.861-21.207,0L5.425,89.227c-5.861,5.861-5.861,15.347,0,21.207l123.639,123.64    l106.038-106.038L206.897,99.831z" fill="#FFFFFF"/>
	</g>
</g>
<g>
</g>
<g>
</g>
<g>
</g>
<g>
</g>
<g>
</g>
<g>
</g>
<g>
</g>
<g>
</g>
<g>
</g>
<g>
</g>
<g>
</g>
<g>
</g>
<g>
</g>
<g>
</g>
<g>
</g>
</svg>
